<svg width="29" height="29" viewBox="0 0 29 29" fill="none" xmlns="http://www.w3.org/2000/svg">
<mask id="path-1-inside-1_20_127" fill="white">
<path fill-rule="evenodd" clip-rule="evenodd" d="M1.17157 1.17157C-0.390523 2.73367 -0.390523 5.26633 1.17157 6.82843L8.41941 14.0763L1.17156 21.3241C-0.390533 22.8862 -0.390533 25.4189 1.17156 26.981C2.73366 28.5431 5.26632 28.5431 6.82842 26.981L14.0763 19.7331L21.3241 26.981C22.8862 28.5431 25.4189 28.5431 26.981 26.981C28.5431 25.4189 28.5431 22.8862 26.981 21.3241L19.7331 14.0763L26.981 6.82843C28.5431 5.26633 28.5431 2.73367 26.981 1.17158C25.4189 -0.390521 22.8862 -0.390521 21.3241 1.17158L14.0763 8.41942L6.82843 1.17157C5.26633 -0.390522 2.73367 -0.390522 1.17157 1.17157Z"/>
</mask>
<path fill-rule="evenodd" clip-rule="evenodd" d="M1.17157 1.17157C-0.390523 2.73367 -0.390523 5.26633 1.17157 6.82843L8.41941 14.0763L1.17156 21.3241C-0.390533 22.8862 -0.390533 25.4189 1.17156 26.981C2.73366 28.5431 5.26632 28.5431 6.82842 26.981L14.0763 19.7331L21.3241 26.981C22.8862 28.5431 25.4189 28.5431 26.981 26.981C28.5431 25.4189 28.5431 22.8862 26.981 21.3241L19.7331 14.0763L26.981 6.82843C28.5431 5.26633 28.5431 2.73367 26.981 1.17158C25.4189 -0.390521 22.8862 -0.390521 21.3241 1.17158L14.0763 8.41942L6.82843 1.17157C5.26633 -0.390522 2.73367 -0.390522 1.17157 1.17157Z" fill="#E04444"/>
<path d="M1.17157 6.82843L1.87868 6.12132L1.87868 6.12132L1.17157 6.82843ZM1.17157 1.17157L1.87868 1.87868L1.87868 1.87868L1.17157 1.17157ZM8.41941 14.0763L9.12652 14.7834L9.83363 14.0763L9.12652 13.3692L8.41941 14.0763ZM1.17156 21.3241L0.464458 20.617L0.464458 20.617L1.17156 21.3241ZM1.17156 26.981L0.464458 27.6881L0.464458 27.6881L1.17156 26.981ZM6.82842 26.981L7.53553 27.6881L7.53553 27.6881L6.82842 26.981ZM14.0763 19.7331L14.7834 19.026L14.0763 18.3189L13.3692 19.026L14.0763 19.7331ZM26.981 26.981L27.6881 27.6881L27.6881 27.6881L26.981 26.981ZM26.981 21.3241L27.6881 20.617L27.6881 20.617L26.981 21.3241ZM19.7331 14.0763L19.026 13.3692L18.3189 14.0763L19.026 14.7834L19.7331 14.0763ZM26.981 6.82843L26.2739 6.12132L26.2739 6.12132L26.981 6.82843ZM26.981 1.17158L26.2739 1.87868L26.2739 1.87868L26.981 1.17158ZM21.3241 1.17158L22.0312 1.87868L22.0312 1.87868L21.3241 1.17158ZM14.0763 8.41942L13.3692 9.12652L14.0763 9.83363L14.7834 9.12652L14.0763 8.41942ZM6.82843 1.17157L6.12132 1.87868L6.12132 1.87868L6.82843 1.17157ZM1.87868 6.12132C0.707108 4.94975 0.707108 3.05025 1.87868 1.87868L0.464468 0.464468C-1.48815 2.41709 -1.48815 5.58291 0.464468 7.53554L1.87868 6.12132ZM9.12652 13.3692L1.87868 6.12132L0.464468 7.53554L7.71231 14.7834L9.12652 13.3692ZM1.87867 22.0312L9.12652 14.7834L7.71231 13.3692L0.464458 20.617L1.87867 22.0312ZM1.87867 26.2739C0.707098 25.1023 0.707098 23.2028 1.87867 22.0312L0.464458 20.617C-1.48816 22.5696 -1.48816 25.7355 0.464458 27.6881L1.87867 26.2739ZM6.12131 26.2739C4.94974 27.4454 3.05024 27.4454 1.87867 26.2739L0.464458 27.6881C2.41708 29.6407 5.5829 29.6407 7.53553 27.6881L6.12131 26.2739ZM13.3692 19.026L6.12131 26.2739L7.53553 27.6881L14.7834 20.4402L13.3692 19.026ZM22.0312 26.2739L14.7834 19.026L13.3692 20.4402L20.617 27.6881L22.0312 26.2739ZM26.2739 26.2739C25.1023 27.4454 23.2028 27.4454 22.0312 26.2739L20.617 27.6881C22.5696 29.6407 25.7355 29.6407 27.6881 27.6881L26.2739 26.2739ZM26.2739 22.0312C27.4454 23.2028 27.4454 25.1023 26.2739 26.2739L27.6881 27.6881C29.6407 25.7355 29.6407 22.5696 27.6881 20.617L26.2739 22.0312ZM19.026 14.7834L26.2739 22.0312L27.6881 20.617L20.4402 13.3692L19.026 14.7834ZM26.2739 6.12132L19.026 13.3692L20.4402 14.7834L27.6881 7.53554L26.2739 6.12132ZM26.2739 1.87868C27.4454 3.05026 27.4454 4.94975 26.2739 6.12132L27.6881 7.53554C29.6407 5.58292 29.6407 2.41709 27.6881 0.464469L26.2739 1.87868ZM22.0312 1.87868C23.2028 0.70711 25.1023 0.70711 26.2739 1.87868L27.6881 0.46447C25.7354 -1.48815 22.5696 -1.48815 20.617 0.46447L22.0312 1.87868ZM14.7834 9.12652L22.0312 1.87868L20.617 0.464469L13.3692 7.71231L14.7834 9.12652ZM6.12132 1.87868L13.3692 9.12652L14.7834 7.71231L7.53554 0.464468L6.12132 1.87868ZM1.87868 1.87868C3.05025 0.707109 4.94975 0.707109 6.12132 1.87868L7.53554 0.464468C5.58291 -1.48815 2.41709 -1.48815 0.464468 0.464468L1.87868 1.87868Z" fill="#8D2F2F" mask="url(#path-1-inside-1_20_127)"/>
</svg>
